HIERARCHY
ROOT Hips
{
	OFFSET 0.000000 71.427986 0.000000
	CHANNELS 6 Xposition Yposition Zposition Xrotation Yrotation Zrotation
	JOINT Pelvis
	{
		OFFSET 0.000000 0.000000 0.000000
		CHANNELS 3 Xrotation Yrotation Zrotation
		JOINT LeftUpLeg
		{
			OFFSET 6.797100 -2.508499 -1.318700
			CHANNELS 3 Xrotation Yrotation Zrotation
			JOINT LeftLeg
			{
				OFFSET 0.069008 -29.241863 0.690200
				CHANNELS 3 Xrotation Yrotation Zrotation
				JOINT LeftFoot
				{
					OFFSET -0.069008 -29.568123 -0.266800
					CHANNELS 3 Xrotation Yrotation Zrotation
					JOINT LeftToeBase
					{
						OFFSET 3.145500 -8.631000 16.059900
						CHANNELS 3 Xrotation Yrotation Zrotation
						End Site
						{
							OFFSET 0.000000 18.501587 0.000000
						}
					}
				}
			}
			JOINT Left_ShortSleeve
			{
				OFFSET 0.265923 -10.480953 1.153800
				CHANNELS 3 Xrotation Yrotation Zrotation
				End Site
				{
					OFFSET 1.725763 19.823879 0.000000
				}
			}
		}
		JOINT RightUpLeg
		{
			OFFSET -6.797100 -2.508499 -1.318700
			CHANNELS 3 Xrotation Yrotation Zrotation
			JOINT RightLeg
			{
				OFFSET -0.082453 -29.241932 0.688000
				CHANNELS 3 Xrotation Yrotation Zrotation
				JOINT RightFoot
				{
					OFFSET 0.082453 -29.568058 -0.264600
					CHANNELS 3 Xrotation Yrotation Zrotation
					JOINT RightToeBase
					{
						OFFSET -3.115300 -8.682800 16.113400
						CHANNELS 3 Xrotation Yrotation Zrotation
						End Site
						{
							OFFSET 0.000000 18.567114 0.000000
						}
					}
				}
			}
			JOINT Right_ShortSleeve
			{
				OFFSET -0.265923 -10.480953 1.153800
				CHANNELS 3 Xrotation Yrotation Zrotation
				End Site
				{
					OFFSET -1.725766 19.823910 0.000000
				}
			}
		}
	}
	JOINT Spine
	{
		OFFSET 0.000000 13.368103 0.470500
		CHANNELS 3 Xrotation Yrotation Zrotation
		JOINT Spine1
		{
			OFFSET 0.147000 13.837402 0.538800
			CHANNELS 3 Xrotation Yrotation Zrotation
			JOINT Spine2
			{
				OFFSET 0.168000 16.242897 -1.435500
				CHANNELS 3 Xrotation Yrotation Zrotation
				JOINT Neck
				{
					OFFSET 0.217200 18.631500 -1.679100
					CHANNELS 3 Xrotation Yrotation Zrotation
					JOINT Head
					{
						OFFSET 0.000000 6.599396 1.385900
						CHANNELS 3 Xrotation Yrotation Zrotation
						JOINT Hat
						{
							OFFSET -0.532200 27.220596 -10.096100
							CHANNELS 3 Xrotation Yrotation Zrotation
							End Site
							{
								OFFSET 0.000000 22.029861 0.000000
							}
						}
						JOINT HairD
						{
							OFFSET -10.777400 17.437393 -1.325900
							CHANNELS 3 Xrotation Yrotation Zrotation
							JOINT HairD1
							{
								OFFSET -3.290299 -11.051193 1.062200
								CHANNELS 3 Xrotation Yrotation Zrotation
								End Site
								{
									OFFSET 0.000000 11.579437 0.000000
								}
							}
						}
						JOINT HairB
						{
							OFFSET -10.777400 17.437393 1.467900
							CHANNELS 3 Xrotation Yrotation Zrotation
							JOINT HairB1
							{
								OFFSET -1.561200 -12.956299 3.590200
								CHANNELS 3 Xrotation Yrotation Zrotation
								End Site
								{
									OFFSET 0.000000 13.534866 0.000000
								}
							}
						}
						JOINT HairA
						{
							OFFSET 9.713100 17.437393 1.467900
							CHANNELS 3 Xrotation Yrotation Zrotation
							JOINT HairA1
							{
								OFFSET 1.561200 -12.956299 3.590200
								CHANNELS 3 Xrotation Yrotation Zrotation
								End Site
								{
									OFFSET 0.000000 13.534866 0.000000
								}
							}
						}
						JOINT HairC
						{
							OFFSET 9.713100 17.437393 -1.325900
							CHANNELS 3 Xrotation Yrotation Zrotation
							JOINT HairC1
							{
								OFFSET 3.290300 -11.051193 1.062200
								CHANNELS 3 Xrotation Yrotation Zrotation
								End Site
								{
									OFFSET 0.000000 11.579437 0.000000
								}
							}
						}
					}
				}
				JOINT LeftShoulder
				{
					OFFSET 5.101800 15.108002 -2.763700
					CHANNELS 3 Xrotation Yrotation Zrotation
					JOINT LeftArm
					{
						OFFSET 9.825497 2.506317 -1.597400
						CHANNELS 3 Xrotation Yrotation Zrotation
						JOINT LeftForeArm
						{
							OFFSET 21.966244 0.000000 0.000000
							CHANNELS 3 Xrotation Yrotation Zrotation
							JOINT LeftHand
							{
								OFFSET 33.879036 0.000000 0.000000
								CHANNELS 3 Xrotation Yrotation Zrotation
								JOINT LeftHandThumb1
								{
									OFFSET 6.715286 -2.359680 3.363841
									CHANNELS 3 Xrotation Yrotation Zrotation
									JOINT LeftHandThumb2
									{
										OFFSET 2.507072 -1.447464 1.447461
										CHANNELS 3 Xrotation Yrotation Zrotation
										JOINT LeftHandThumb3
										{
											OFFSET 2.898338 -1.673355 1.673357
											CHANNELS 3 Xrotation Yrotation Zrotation
											End Site
											{
												OFFSET -0.295959 3.727692 -0.131651
											}
										}
									}
								}
								JOINT LeftHandIndex1
								{
									OFFSET 14.190811 -0.254547 3.840278
									CHANNELS 3 Xrotation Yrotation Zrotation
									JOINT LeftHandIndex2
									{
										OFFSET 3.551727 0.000000 -0.000000
										CHANNELS 3 Xrotation Yrotation Zrotation
										JOINT LeftHandIndex3
										{
											OFFSET 2.894196 0.000000 0.000000
											CHANNELS 3 Xrotation Yrotation Zrotation
											End Site
											{
												OFFSET -1.000603 2.690872 0.366626
											}
										}
									}
								}
								JOINT LeftHandMiddle1
								{
									OFFSET 13.776489 0.000000 0.000000
									CHANNELS 3 Xrotation Yrotation Zrotation
									JOINT LeftHandMiddle2
									{
										OFFSET 3.438232 0.000000 0.000000
										CHANNELS 3 Xrotation Yrotation Zrotation
										JOINT LeftHandMiddle3
										{
											OFFSET 3.691551 0.000000 0.000000
											CHANNELS 3 Xrotation Yrotation Zrotation
											End Site
											{
												OFFSET -1.082298 3.499527 0.457670
											}
										}
									}
								}
								JOINT LeftHandRing1
								{
									OFFSET 13.966164 -0.268127 -3.067488
									CHANNELS 3 Xrotation Yrotation Zrotation
									JOINT LeftHandRing2
									{
										OFFSET 3.162567 0.000000 0.000000
										CHANNELS 3 Xrotation Yrotation Zrotation
										JOINT LeftHandRing3
										{
											OFFSET 3.324348 0.000000 0.000000
											CHANNELS 3 Xrotation Yrotation Zrotation
											End Site
											{
												OFFSET -0.861900 3.184998 0.405154
											}
										}
									}
								}
								JOINT LeftHandPinky1
								{
									OFFSET 13.131393 -0.168503 -5.746925
									CHANNELS 3 Xrotation Yrotation Zrotation
									JOINT LeftHandPinky2
									{
										OFFSET 2.849182 0.000000 0.000000
										CHANNELS 3 Xrotation Yrotation Zrotation
										JOINT LeftHandPinky3
										{
											OFFSET 2.805038 0.000000 0.000000
											CHANNELS 3 Xrotation Yrotation Zrotation
											End Site
											{
												OFFSET -0.882500 2.642609 0.325652
											}
										}
									}
								}
							}
							JOINT Left_Sleeve
							{
								OFFSET 6.592125 -0.646545 0.805568
								CHANNELS 3 Xrotation Yrotation Zrotation
								End Site
								{
									OFFSET -0.000179 20.275787 -0.000000
								}
							}
						}
					}
				}
				JOINT RightShoulder
				{
					OFFSET -5.731700 15.108002 -2.763700
					CHANNELS 3 Xrotation Yrotation Zrotation
					JOINT RightArm
					{
						OFFSET -9.825497 2.506317 -1.597400
						CHANNELS 3 Xrotation Yrotation Zrotation
						JOINT RightForeArm
						{
							OFFSET -21.966242 0.000000 0.000000
							CHANNELS 3 Xrotation Yrotation Zrotation
							JOINT RightHand
							{
								OFFSET -33.879032 0.000000 0.000000
								CHANNELS 3 Xrotation Yrotation Zrotation
								JOINT RightHandThumb1
								{
									OFFSET -6.715286 -2.359680 3.363841
									CHANNELS 3 Xrotation Yrotation Zrotation
									JOINT RightHandThumb2
									{
										OFFSET -2.507072 -1.447464 1.447461
										CHANNELS 3 Xrotation Yrotation Zrotation
										JOINT RightHandThumb3
										{
											OFFSET -2.898338 -1.673355 1.673357
											CHANNELS 3 Xrotation Yrotation Zrotation
											End Site
											{
												OFFSET 0.295959 3.727692 -0.131651
											}
										}
									}
								}
								JOINT RightHandIndex1
								{
									OFFSET -14.190811 -0.254547 3.840278
									CHANNELS 3 Xrotation Yrotation Zrotation
									JOINT RightHandIndex2
									{
										OFFSET -3.551727 0.000000 -0.000000
										CHANNELS 3 Xrotation Yrotation Zrotation
										JOINT RightHandIndex3
										{
											OFFSET -2.894196 0.000000 0.000000
											CHANNELS 3 Xrotation Yrotation Zrotation
											End Site
											{
												OFFSET 1.000603 2.690872 0.366626
											}
										}
									}
								}
								JOINT RightHandMiddle1
								{
									OFFSET -13.776489 0.000000 0.000000
									CHANNELS 3 Xrotation Yrotation Zrotation
									JOINT RightHandMiddle2
									{
										OFFSET -3.438232 0.000000 0.000000
										CHANNELS 3 Xrotation Yrotation Zrotation
										JOINT RightHandMiddle3
										{
											OFFSET -3.691551 0.000000 0.000000
											CHANNELS 3 Xrotation Yrotation Zrotation
											End Site
											{
												OFFSET 1.082298 3.499527 0.457670
											}
										}
									}
								}
								JOINT RightHandRing1
								{
									OFFSET -13.966164 -0.268127 -3.067488
									CHANNELS 3 Xrotation Yrotation Zrotation
									JOINT RightHandRing2
									{
										OFFSET -3.162567 0.000000 0.000000
										CHANNELS 3 Xrotation Yrotation Zrotation
										JOINT RightHandRing3
										{
											OFFSET -3.324348 0.000000 0.000000
											CHANNELS 3 Xrotation Yrotation Zrotation
											End Site
											{
												OFFSET 0.861900 3.184998 0.405154
											}
										}
									}
								}
								JOINT RightHandPinky1
								{
									OFFSET -13.131393 -0.168503 -5.746925
									CHANNELS 3 Xrotation Yrotation Zrotation
									JOINT RightHandPinky2
									{
										OFFSET -2.849182 0.000000 0.000000
										CHANNELS 3 Xrotation Yrotation Zrotation
										JOINT RightHandPinky3
										{
											OFFSET -2.805038 0.000000 0.000000
											CHANNELS 3 Xrotation Yrotation Zrotation
											End Site
											{
												OFFSET 0.882500 2.642609 0.325652
											}
										}
									}
								}
							}
							JOINT Right_Sleeve
							{
								OFFSET -6.592125 -0.646545 0.805568
								CHANNELS 3 Xrotation Yrotation Zrotation
								End Site
								{
									OFFSET 0.000179 20.275787 -0.000000
								}
							}
						}
					}
				}
				JOINT Bind_Right_JacketString
				{
					OFFSET -3.534800 11.969597 7.200700
					CHANNELS 3 Xrotation Yrotation Zrotation
					JOINT Bind_Right_JacketString1
					{
						OFFSET -0.319900 -6.102600 2.794100
						CHANNELS 3 Xrotation Yrotation Zrotation
						End Site
						{
							OFFSET 0.000000 6.719452 0.000000
						}
					}
				}
				JOINT Bind_Left_JacketString
				{
					OFFSET 2.904800 11.969597 7.200700
					CHANNELS 3 Xrotation Yrotation Zrotation
					JOINT Bind_Left_JacketString1
					{
						OFFSET 0.364800 -5.904503 3.186800
						CHANNELS 3 Xrotation Yrotation Zrotation
						End Site
						{
							OFFSET 0.000000 6.719513 0.000000
						}
					}
				}
				JOINT HairE
				{
					OFFSET 5.915200 17.612701 -11.592200
					CHANNELS 3 Xrotation Yrotation Zrotation
					JOINT HairE1
					{
						OFFSET 0.289200 -7.171898 -1.284500
						CHANNELS 3 Xrotation Yrotation Zrotation
						End Site
						{
							OFFSET 0.000000 7.291756 0.000000
						}
					}
				}
				JOINT HairF
				{
					OFFSET -0.864800 17.612701 -11.592200
					CHANNELS 3 Xrotation Yrotation Zrotation
					JOINT HairF1
					{
						OFFSET 0.000000 -14.087097 -2.127501
						CHANNELS 3 Xrotation Yrotation Zrotation
						End Site
						{
							OFFSET 0.000000 14.246841 0.000000
						}
					}
				}
				JOINT HairG
				{
					OFFSET -8.087700 17.612701 -11.592200
					CHANNELS 3 Xrotation Yrotation Zrotation
					JOINT HairG1
					{
						OFFSET -0.293600 -6.081398 -0.910100
						CHANNELS 3 Xrotation Yrotation Zrotation
						End Site
						{
							OFFSET 0.000000 6.156120 0.000000
						}
					}
				}
			}
		}
	}
	JOINT Pouch
	{
		OFFSET 0.000000 4.394501 10.847300
		CHANNELS 3 Xrotation Yrotation Zrotation
		End Site
		{
			OFFSET 0.000000 21.880577 0.000000
		}
	}
	JOINT Bag
	{
		OFFSET -13.229000 4.813004 -0.593300
		CHANNELS 3 Xrotation Yrotation Zrotation
		End Site
		{
			OFFSET 0.000000 21.880577 0.000000
		}
	}
	JOINT OccupyGuyFacialAnim_Joint
	{
		OFFSET 1.000000 -70.206398 -1.655000
		CHANNELS 3 Xrotation Yrotation Zrotation
		End Site
		{
			OFFSET 0.000000 21.880577 0.000000
		}
	}
}
MOTION
Frames: 4
Frame Time: 0.016667
-0.863806 63.626083 0.767567 3.013713 -58.244582 6.565682 0.000000 -0.000002 0.000000 -32.625997 11.151082 23.547492 43.775553 -8.035216 -9.925854 -13.046677 -2.694440 -7.240290 0.000000 0.000002 -0.000000 0.000001 -0.000004 -0.000003 -30.694863 -9.745381 -24.744454 48.823463 2.523480 -7.653099 -22.400008 2.490691 19.772768 -0.000000 0.000002 0.000000 -0.000001 -0.000001 -0.000000 11.191590 0.099400 -2.783150 8.434580 0.027692 -5.592317 8.457040 0.027883 -5.591866 -21.555838 25.063367 12.062733 -0.293895 25.465790 -3.209034 -0.000000 -0.000000 0.000000 -0.000000 -0.000000 0.000000 -0.000000 -0.000000 0.000000 -0.000000 -0.000000 0.000000 -0.000000 0.000000 0.000000 -0.000000 -0.000000 0.000000 -0.000000 0.000000 0.000000 -0.000000 -0.000000 0.000000 -0.000000 -0.000000 0.000000 -6.221637 -11.503764 -4.023780 -23.062207 9.568410 -36.639635 0.046047 -43.168923 -0.011228 22.743787 -5.685993 15.979369 -1.064236 -7.954954 8.490076 2.373404 19.986112 -2.038332 0.000000 -0.000000 0.000001 13.340877 -1.006686 10.682282 -0.167588 0.303371 -31.105662 0.000001 0.000001 -0.000003 8.495429 -0.329579 -0.915333 0.231484 0.661177 -29.901854 0.000000 0.000003 -0.000001 6.111748 3.150927 -16.210938 0.047034 0.322405 -30.125495 -0.000000 0.000004 -0.000002 -5.636033 7.709850 -13.878635 0.224355 0.276571 -46.588351 -0.000001 -0.000001 0.000001 0.000001 0.000003 -0.000001 -5.488220 10.658261 2.466465 -41.473896 -26.755560 30.079050 24.955706 111.862871 -23.308760 -8.702499 12.423122 -9.801878 0.265007 10.061117 -10.888489 1.383773 -17.412874 3.016247 0.000001 -0.000002 -0.000000 19.443633 11.174440 -13.340210 -0.118643 -0.322734 18.035594 -0.000000 -0.000000 0.000002 4.320483 2.436980 -4.811717 0.349127 -0.461252 26.890327 0.000002 -0.000002 -0.000003 -7.005626 -10.695139 5.719851 0.111885 -0.089169 26.155878 -0.000002 0.000000 -0.000002 -19.433524 -20.238218 5.987857 0.223757 -0.085787 36.844588 0.000001 0.000001 -0.000001 0.000000 -0.000003 0.000000 -0.000000 0.000000 -0.000001 0.000001 0.000000 -0.000000 -0.000000 0.000000 -0.000001 -0.000000 0.000000 -0.000001 -0.000000 0.000000 -0.000001 0.000001 0.000000 -0.000000 -0.000000 0.000000 -0.000001 -0.000000 0.000000 -0.000001 -0.000000 0.000000 -0.000001 0.000001 0.000000 -0.000000 0.000000 -0.000002 0.000000 0.000000 -0.000002 0.000000 0.000000 -0.000002 0.000000 
-0.925282 63.655609 0.901931 2.498170 -58.223490 5.787065 -0.000000 -0.000003 0.000000 -32.285457 10.650603 23.667615 44.049263 -7.800680 -9.940607 -13.344832 -2.662802 -7.305000 0.000000 -0.000002 -0.000000 -0.000001 -0.000003 -0.000000 -30.157543 -10.198697 -24.625581 48.478197 2.766840 -7.604331 -22.353918 2.490371 19.758843 -0.000000 -0.000000 -0.000000 -0.000001 0.000000 -0.000001 11.159389 0.067729 -2.841338 8.343009 -0.023348 -5.688293 8.371668 0.015602 -5.630542 -20.102596 24.801795 13.023841 -0.857430 25.691092 -3.215340 0.000000 -0.000000 0.000000 0.000000 -0.000000 0.000000 0.000000 -0.000000 0.000001 0.000000 -0.000000 0.000000 0.000000 -0.000000 0.000000 0.000000 -0.000000 0.000000 0.000000 -0.000000 0.000000 0.000000 -0.000000 0.000000 0.000000 -0.000000 0.000000 -6.221582 -11.502595 -4.090413 -23.051562 9.454043 -36.707407 0.206700 -43.116379 0.092949 22.538468 -5.934224 15.432498 -0.983723 -7.447198 8.678385 2.534437 20.452380 -1.857960 0.000001 -0.000000 0.000001 13.342560 -1.008440 10.138455 -0.166791 0.303602 -31.649608 0.000000 -0.000003 -0.000002 8.486653 -0.324264 -1.459194 0.234613 0.662888 -30.445773 0.000000 0.000002 0.000003 6.111053 3.157129 -16.754620 0.047449 0.326153 -30.669380 -0.000002 0.000001 -0.000005 -5.627380 7.708066 -14.423269 0.226456 0.278318 -47.132328 -0.000000 -0.000003 0.000002 0.000002 -0.000000 0.000001 -5.459877 9.874453 2.586599 -40.532532 -25.915541 31.217380 24.790552 110.210805 -23.382671 -8.889545 12.458774 -8.493629 0.272618 9.991987 -10.913345 1.407695 -17.475145 2.991989 0.000000 -0.000000 0.000003 19.443720 11.174482 -13.267042 -0.118582 -0.322791 18.108985 -0.000001 -0.000002 0.000002 4.319294 2.436258 -4.738284 0.349515 -0.461517 26.963714 -0.000000 -0.000001 0.000001 -7.006186 -10.695765 5.792800 0.111878 -0.089691 26.229287 -0.000000 -0.000001 -0.000000 -19.433749 -20.238499 6.060280 0.224073 -0.086065 36.918023 0.000001 0.000002 0.000003 0.000003 0.000000 0.000001 0.000002 0.000000 -0.000000 0.000002 0.000000 0.000001 0.000002 0.000000 0.000001 0.000002 0.000000 0.000001 0.000002 0.000000 -0.000000 0.000002 0.000000 0.000001 0.000002 0.000000 0.000001 0.000002 0.000000 0.000001 0.000002 0.000000 -0.000000 0.000002 0.000000 0.000001 -0.000000 -0.000003 0.000000 -0.000000 -0.000003 0.000000 -0.000000 -0.000003 0.000000 
-1.103692 63.676811 1.039232 1.926116 -58.197385 4.941609 -0.000000 -0.000001 -0.000000 -31.896953 10.339281 23.987787 44.284477 -7.834472 -9.980688 -13.702704 -2.635155 -7.351460 0.000000 0.000002 0.000000 -0.000003 0.000002 0.000000 -29.487030 -10.651001 -24.420027 48.216430 2.928467 -7.568819 -22.472622 2.472269 19.750740 -0.000000 0.000002 0.000000 -0.000001 -0.000001 -0.000000 11.071859 0.035440 -2.900737 8.093934 -0.081182 -5.786254 8.133087 -0.021284 -5.670395 -18.473604 24.513733 14.037475 -1.509214 25.960384 -3.156112 0.000000 0.000000 0.000000 0.000000 0.000000 0.000000 0.000000 0.000000 0.000001 0.000000 0.000000 -0.000000 0.000000 -0.000000 -0.000000 0.000000 0.000000 -0.000000 0.000000 -0.000000 -0.000000 0.000000 0.000000 0.000000 0.000000 0.000000 0.000000 -6.237337 -11.503376 -4.274843 -23.016752 9.112606 -36.903625 0.376344 -42.965807 0.192075 22.289822 -6.181500 14.845782 -0.897580 -6.894445 8.882396 2.708440 20.960129 -1.662710 -0.000000 0.000001 -0.000001 13.344379 -1.010284 9.546763 -0.165972 0.306030 -32.241457 0.000002 -0.000003 -0.000002 8.477194 -0.316690 -2.050863 0.237948 0.664736 -31.037670 -0.000002 0.000001 0.000004 6.110039 3.163938 -17.346116 0.047841 0.330117 -31.261223 -0.000002 0.000000 0.000000 -5.619448 7.706684 -15.015758 0.228761 0.280221 -47.724103 -0.000000 0.000001 0.000001 -0.000002 0.000001 0.000002 -5.454992 9.092294 2.875202 -39.552037 -24.929115 32.615267 32.279290 109.755232 -30.680107 -5.944203 12.171679 -6.772568 0.293747 9.798406 -10.982929 1.474614 -17.649535 2.924100 -0.000000 -0.000003 0.000002 19.444031 11.174647 -13.062137 -0.118466 -0.322965 18.314507 -0.000000 0.000001 0.000004 4.315990 2.434216 -4.532567 0.350629 -0.462229 27.169210 -0.000001 0.000003 0.000001 -7.007860 -10.697469 5.997233 0.111884 -0.091081 26.434821 0.000003 -0.000003 -0.000001 -19.434374 -20.239264 6.263172 0.224730 -0.086861 37.123533 -0.000002 0.000001 0.000001 0.000003 -0.000002 -0.000002 0.000001 0.000003 -0.000000 0.000001 0.000000 0.000001 0.000001 0.000003 -0.000001 0.000001 0.000003 -0.000001 0.000001 0.000003 -0.000000 0.000001 0.000000 0.000002 0.000001 0.000003 -0.000001 0.000001 0.000003 -0.000001 0.000001 0.000003 -0.000000 0.000001 0.000000 0.000002 -0.000000 -0.000001 -0.000000 -0.000000 -0.000001 -0.000000 -0.000000 -0.000001 -0.000000 
-1.340696 63.707260 1.176680 1.332365 -58.166246 4.070058 -0.000000 0.000001 0.000000 -31.464028 10.170347 24.408156 44.427444 -8.023672 -10.024729 -14.054520 -2.609652 -7.380859 0.000000 0.000002 0.000000 -0.000003 -0.000002 -0.000001 -28.717216 -11.104414 -24.156970 47.932864 3.048039 -7.534114 -22.642345 2.444331 19.740850 0.000000 -0.000000 -0.000000 -0.000000 0.000001 -0.000000 10.941378 0.003317 -2.960050 7.716264 -0.138317 -5.878632 7.767796 -0.077113 -5.711215 -16.813185 24.183079 14.998418 -2.116841 26.147945 -2.929927 0.000000 -0.000001 -0.000000 0.000000 -0.000001 -0.000000 0.000000 -0.000001 0.000000 0.000000 -0.000001 -0.000000 0.000000 -0.000000 0.000001 0.000000 -0.000001 -0.000000 0.000000 -0.000000 0.000001 0.000000 -0.000001 -0.000000 0.000000 -0.000001 -0.000000 -6.272271 -11.473027 -4.554314 -22.962500 8.580381 -37.210259 0.522207 -42.740441 0.264844 22.035030 -6.411169 14.252133 -0.807483 -6.305766 9.098592 2.892321 21.501285 -1.455677 0.000001 -0.000000 0.000001 13.346306 -1.012334 8.916809 -0.165089 0.308703 -32.871535 0.000003 0.000002 0.000000 8.471092 -0.308421 -2.680883 0.241576 0.666622 -31.667800 -0.000001 -0.000003 0.000002 6.108672 3.171287 -17.975939 0.048347 0.334424 -31.891311 -0.000002 0.000000 -0.000003 -5.612724 7.705887 -15.646334 0.231247 0.282260 -48.354218 -0.000000 -0.000001 -0.000003 0.000002 0.000000 -0.000002 -5.464604 8.274673 3.337419 -38.620062 -23.706190 34.142873 37.232717 108.739221 -35.689801 -3.949294 11.691919 -4.741117 0.325866 9.501091 -11.089672 1.574346 -17.916681 2.815874 -0.000001 -0.000001 -0.000002 19.444468 11.174855 -12.747388 -0.118173 -0.323172 18.630198 0.000001 -0.000000 -0.000003 4.310956 2.431044 -4.216697 0.352337 -0.463335 27.484866 -0.000001 -0.000001 0.000001 -7.005727 -10.700430 6.312118 0.111845 -0.093227 26.750438 0.000005 0.000000 0.000002 -19.434415 -20.236073 6.577717 0.225744 -0.088091 37.439118 -0.000002 0.000000 -0.000003 -0.000000 0.000002 0.000002 -0.000000 0.000000 -0.000000 0.000001 0.000002 -0.000000 -0.000000 0.000000 0.000002 -0.000000 0.000000 0.000002 -0.000000 0.000000 -0.000000 0.000001 0.000002 -0.000000 -0.000000 0.000000 0.000002 -0.000000 0.000000 0.000002 -0.000000 0.000000 -0.000000 0.000001 0.000002 -0.000000 -0.000000 0.000001 0.000000 -0.000000 0.000001 0.000000 -0.000000 0.000001 0.000000 
